<svg width="19" height="15" viewBox="0 0 19 15" fill="none" xmlns="http://www.w3.org/2000/svg">
<g clip-path="url(#clip0_82_4648)">
<path d="M1.80768 14.9999C1.30255 14.9999 0.874992 14.8249 0.524995 14.4749C0.174998 14.1249 0 13.6974 0 13.1922V1.80768C0 1.30255 0.174998 0.874992 0.524995 0.524995C0.874992 0.174998 1.30255 0 1.80768 0H17.1922C17.6974 0 18.1249 0.174998 18.4749 0.524995C18.8249 0.874992 18.9999 1.30255 18.9999 1.80768V13.1922C18.9999 13.6974 18.8249 14.1249 18.4749 14.4749C18.1249 14.8249 17.6974 14.9999 17.1922 14.9999H1.80768ZM9.49996 8.05762L1.49996 2.94223V13.1922C1.49996 13.282 1.52881 13.3557 1.58651 13.4134C1.6442 13.4711 1.71793 13.5 1.80768 13.5H17.1922C17.282 13.5 17.3557 13.4711 17.4134 13.4134C17.4711 13.3557 17.5 13.282 17.5 13.1922V2.94223L9.49996 8.05762ZM9.49996 6.49996L17.3461 1.49996H1.65382L9.49996 6.49996ZM1.49996 13.1922C1.49996 13.282 1.52881 13.3557 1.58651 13.4134C1.6442 13.4711 1.71793 13.5 1.80768 13.5H1.49996C1.49996 13.5 1.49996 13.4711 1.49996 13.4134C1.49996 13.3557 1.49996 13.282 1.49996 13.1922Z" fill="#B79148"/>
</g>
<defs>
<clipPath id="clip0_82_4648">
<rect width="19" height="15" fill="white"/>
</clipPath>
</defs>
</svg>
