<svg width="13" height="20" viewBox="0 0 13 20" fill="none" xmlns="http://www.w3.org/2000/svg">
<path d="M6.29004 11.8044C6.70563 11.8044 7.0606 11.6573 7.35493 11.3629C7.64927 11.0686 7.79643 10.7136 7.79643 10.298C7.79643 9.88245 7.64927 9.52749 7.35493 9.23315C7.0606 8.93882 6.70563 8.79165 6.29004 8.79165C5.87444 8.79165 5.51948 8.93882 5.22514 9.23315C4.93081 9.52749 4.78364 9.88245 4.78364 10.298C4.78364 10.7136 4.93081 11.0686 5.22514 11.3629C5.51948 11.6573 5.87444 11.8044 6.29004 11.8044V11.8044M6.29004 18.1779C7.92037 16.7185 9.16797 15.3186 10.0328 13.9783C10.8977 12.6381 11.3301 11.4642 11.3301 10.4567C11.3301 8.93747 10.8475 7.68854 9.88219 6.70991C8.91691 5.73127 7.71953 5.24196 6.29004 5.24196C4.86055 5.24196 3.66316 5.73127 2.69789 6.70991C1.73261 7.68854 1.24997 8.93747 1.24997 10.4567C1.24997 11.4642 1.6824 12.6381 2.54725 13.9783C3.4121 15.3186 4.6597 16.7185 6.29004 18.1779V18.1779M6.29004 19.8413C4.19282 18.024 2.62018 16.3328 1.57211 14.7676C0.524036 13.2024 0 11.7655 0 10.4567C0 8.53364 0.622058 6.97675 1.86618 5.78605C3.11029 4.59535 4.58491 4 6.29004 4C7.99516 4 9.46978 4.59535 10.7139 5.78605C11.958 6.97675 12.5801 8.53364 12.5801 10.4567C12.5801 11.7655 12.056 13.2024 11.008 14.7676C9.95989 16.3328 8.38725 18.024 6.29004 19.8413V19.8413M6.29004 10.298V10.298V10.298V10.298V10.298V10.298V10.298V10.298V10.298V10.298" fill="#B79148"/>
</svg>
