<svg width="22" height="22" viewBox="0 0 22 22" fill="none" xmlns="http://www.w3.org/2000/svg">
<path d="M18 8.00049L16.75 5.25049L14 4.00049L16.75 2.75049L18 0.000488281L19.25 2.75049L22 4.00049L19.25 5.25049L18 8.00049ZM18 22.0005L16.75 19.2505L14 18.0005L16.75 16.7505L18 14.0005L19.25 16.7505L22 18.0005L19.25 19.2505L18 22.0005ZM8 19.0005L5.5 13.5005L0 11.0005L5.5 8.50049L8 3.00049L10.5 8.50049L16 11.0005L10.5 13.5005L8 19.0005ZM8 14.1505L9 12.0005L11.15 11.0005L9 10.0005L8 7.85049L7 10.0005L4.85 11.0005L7 12.0005L8 14.1505Z" fill="#795823"/>
</svg>
